<?xml version="1.0" encoding="UTF-8" standalone="no"?>
<svg
   xmlns:dc="http://purl.org/dc/elements/1.1/"
   xmlns:cc="http://creativecommons.org/ns#"
   xmlns:rdf="http://www.w3.org/1999/02/22-rdf-syntax-ns#"
   xmlns:svg="http://www.w3.org/2000/svg"
   xmlns="http://www.w3.org/2000/svg"
   xmlns:sodipodi="http://sodipodi.sourceforge.net/DTD/sodipodi-0.dtd"
   xmlns:inkscape="http://www.inkscape.org/namespaces/inkscape"
   height="440pt"
   viewBox="0 -8 440 440"
   width="440pt"
   version="1.1"
   id="svg76"
   sodipodi:docname="lasca.svg"
   inkscape:version="0.92.5 (2060ec1f9f, 2020-04-08)">
  <metadata
     id="metadata82">
    <rdf:RDF>
      <cc:Work
         rdf:about="">
        <dc:format>image/svg+xml</dc:format>
        <dc:type
           rdf:resource="http://purl.org/dc/dcmitype/StillImage" />
      </cc:Work>
    </rdf:RDF>
  </metadata>
  <defs
     id="defs80" />
  <sodipodi:namedview
     pagecolor="#ffffff"
     bordercolor="#666666"
     borderopacity="1"
     objecttolerance="10"
     gridtolerance="10"
     guidetolerance="10"
     inkscape:pageopacity="0"
     inkscape:pageshadow="2"
     inkscape:window-width="1920"
     inkscape:window-height="1043"
     id="namedview78"
     showgrid="false"
     inkscape:zoom="0.40227273"
     inkscape:cx="293.33333"
     inkscape:cy="293.33333"
     inkscape:window-x="1920"
     inkscape:window-y="0"
     inkscape:window-maximized="1"
     inkscape:current-layer="svg76" />
  <path
     d="M 341,421.5 H 101 l -80,-80 V 85.5 L 101,5.4999999 H 341 L 421,85.5 v 256 z m 0,0"
     id="path6"
     inkscape:connector-curvature="0"
     style="fill:#0079a8" />
  <path
     d="M 341,425.5 H 101 c -1.0625,0 -2.07812,-0.42578 -2.83203,-1.16797 l -80.000001,-80 C 17.425781,343.57812 17,342.5625 17,341.5 v -256 c 0,-1.0625 0.425781,-2.078125 1.167969,-2.832031 L 98.16797,2.6679689 C 98.92188,1.9257809 99.9375,1.4999999 101,1.4999999 h 240 c 1.0625,0 2.07813,0.425781 2.83203,1.167969 l 80,80.0000001 C 424.57422,83.421875 425,84.4375 425,85.5 v 256 c 0,1.0625 -0.42578,2.07812 -1.16797,2.83203 l -80,80 C 343.07813,425.07422 342.0625,425.5 341,425.5 Z m -238.34375,-8 h 236.6875 L 417,339.84375 V 87.15625 L 339.34375,9.4999999 H 102.65625 L 25,87.15625 v 252.6875 z m 0,0"
     id="path8"
     inkscape:connector-curvature="0"
     style="fill:#212a41" />
  <path
     d="m 107.625,409.5 c -1.02344,0 -2.05078,-0.39063 -2.83203,-1.16797 L 34.167969,337.69922 C 33.414062,336.94922 33,335.93359 33,334.86719 V 92.132812 c 0,-1.066406 0.425781,-2.082031 1.167969,-2.832031 L 104.79297,18.667969 c 1.55859,-1.558594 4.09375,-1.558594 5.65625,0 1.55859,1.558593 1.55859,4.097656 0,5.65625 L 41,93.789062 V 333.21875 l 69.45703,69.45703 c 1.5586,1.5586 1.5586,4.09766 0,5.65625 -0.78515,0.77735 -1.80859,1.16797 -2.83203,1.16797 z m 0,0"
     id="path10"
     inkscape:connector-curvature="0"
     style="fill:#1e97c6" />
  <path
     d="m 333,409.5 c -1.02344,0 -2.04687,-0.39063 -2.83203,-1.16797 -1.55859,-1.55859 -1.55859,-4.09766 0,-5.65625 L 399.625,333.21875 V 93.789062 L 330.16797,24.332031 c -1.55859,-1.558593 -1.55859,-4.097656 0,-5.65625 1.55859,-1.558593 4.09766,-1.558593 5.65625,0 l 70.625,70.632813 c 0.75,0.75 1.16797,1.765625 1.16797,2.832031 V 334.88281 c 0,1.06641 -0.42578,2.08203 -1.16797,2.83203 l -70.625,70.63282 C 335.04688,409.10938 334.02344,409.5 333,409.5 Z m 0,0"
     id="path12"
     inkscape:connector-curvature="0"
     style="fill:#005b8a" />
  <path
     d="m 173,165.5 h 96 v 96 h -96 z m 0,0"
     id="path14"
     inkscape:connector-curvature="0"
     style="fill:#b7c0d7" />
  <path
     d="m 269,265.5 h -96 c -2.20703,0 -4,-1.79297 -4,-4 v -96 c 0,-2.20703 1.79297,-4 4,-4 h 96 c 2.20703,0 4,1.79297 4,4 v 96 c 0,2.20703 -1.79297,4 -4,4 z m -92,-8 h 88 v -88 h -88 z m 0,0"
     id="path16"
     inkscape:connector-curvature="0"
     style="fill:#212a41" />
  <path
     d="m 245,241.5 h -48 c -2.20703,0 -4,-1.79297 -4,-4 v -48 c 0,-2.20703 1.79297,-4 4,-4 h 48 c 2.20703,0 4,1.79297 4,4 v 48 c 0,2.20703 -1.79297,4 -4,4 z m -44,-8 h 40 v -40 h -40 z m 0,0"
     id="path18"
     inkscape:connector-curvature="0"
     style="fill:#212a41" />
  <path
     d="m 421,257.5 h -40 c -3.18359,0 -6.23047,1.26562 -8.48828,3.51172 l -40.96875,40.96875 c -2.24609,2.24609 -5.30469,3.51172 -8.48828,3.51172 H 237 v 24 h 96 c 3.18359,0 6.23047,-1.26563 8.48828,-3.51172 l 40.96875,-40.96875 c 2.2461,-2.2461 5.30469,-3.51172 8.48828,-3.51172 H 421 Z m 0,0"
     id="path20"
     inkscape:connector-curvature="0"
     style="fill:#e0e0e0" />
  <path
     d="m 333,333.5 h -96 c -2.20703,0 -4,-1.79297 -4,-4 v -24 c 0,-2.20703 1.79297,-4 4,-4 h 86.0625 c 2.10547,0 4.16797,-0.85547 5.65625,-2.34375 L 369.6875,258.1875 C 372.66406,255.20312 376.79297,253.5 381,253.5 h 40 c 2.20703,0 4,1.79297 4,4 v 24 c 0,2.20703 -1.79297,4 -4,4 h -30.0625 c -2.10547,0 -4.16797,0.85547 -5.65625,2.34375 L 344.3125,328.8125 C 341.33594,331.79687 337.20703,333.5 333,333.5 Z m -92,-8 h 92 c 2.10547,0 4.16797,-0.85547 5.65625,-2.34375 L 379.625,282.1875 c 2.97656,-2.98438 7.10156,-4.6875 11.3125,-4.6875 H 417 v -16 h -36 c -2.10547,0 -4.16797,0.85547 -5.65625,2.34375 L 334.375,304.8125 c -2.97656,2.98437 -7.10156,4.6875 -11.3125,4.6875 H 241 Z m 0,0"
     id="path22"
     inkscape:connector-curvature="0"
     style="fill:#212a41" />
  <path
     d="m 245,317.5 c 0,13.25391 -10.74609,24 -24,24 -13.25391,0 -24,-10.74609 -24,-24 0,-13.25391 10.74609,-24 24,-24 13.25391,0 24,10.74609 24,24 z m 0,0"
     id="path24"
     inkscape:connector-curvature="0"
     style="fill:#f9ac2f" />
  <path
     d="m 221,345.5 c -15.44141,0 -28,-12.55859 -28,-28 0,-15.44141 12.55859,-28 28,-28 15.44141,0 28,12.55859 28,28 0,15.44141 -12.55859,28 -28,28 z m 0,-48 c -11.03125,0 -20,8.97656 -20,20 0,11.02344 8.96875,20 20,20 11.03125,0 20,-8.97656 20,-20 0,-11.02344 -8.96875,-20 -20,-20 z m 0,0"
     id="path26"
     inkscape:connector-curvature="0"
     style="fill:#212a41" />
  <path
     d="M 60.511719,141.01172 32.03125,169.5 H 21 v 24 h 16 c 3.175781,0 6.230469,-1.26563 8.488281,-3.51172 L 73.976562,161.5 H 117 v -24 H 69 c -3.175781,0 -6.230469,1.26562 -8.488281,3.51172 z m 0,0"
     id="path28"
     inkscape:connector-curvature="0"
     style="fill:#e0e0e0" />
  <path
     d="M 37,197.5 H 21 c -2.207031,0 -4,-1.79297 -4,-4 v -24 c 0,-2.20703 1.792969,-4 4,-4 h 9.375 L 57.6875,138.1875 C 60.664062,135.20312 64.792969,133.5 69,133.5 h 48 c 2.20703,0 4,1.79297 4,4 v 24 c 0,2.20703 -1.79297,4 -4,4 H 75.625 L 48.3125,192.8125 C 45.335938,195.79687 41.207031,197.5 37,197.5 Z m -12,-8 h 12 c 2.105469,0 4.167969,-0.85547 5.65625,-2.34375 L 71.144531,158.66797 C 71.886719,157.92578 72.902344,157.5 73.96875,157.5 H 113 v -16 H 69 c -2.105469,0 -4.167969,0.85547 -5.65625,2.34375 L 34.855469,172.33203 C 34.113281,173.07422 33.097656,173.5 32.03125,173.5 H 25 Z m 0,0"
     id="path30"
     inkscape:connector-curvature="0"
     style="fill:#212a41" />
  <path
     d="M 281,5.4999999 V 61.5 c 0,4.542969 2.56641,8.695312 6.63281,10.734375 L 313,84.914062 V 197.5 h 24 v -120 c 0,-4.542969 -2.56641,-8.695312 -6.63281,-10.734375 L 305,54.085938 V 5.4999999 Z m 0,0"
     id="path32"
     inkscape:connector-curvature="0"
     style="fill:#e0e0e0" />
  <path
     d="m 337,201.5 h -24 c -2.20703,0 -4,-1.79297 -4,-4 V 87.386719 L 285.83984,75.8125 C 280.39063,73.074219 277,67.597656 277,61.5 V 5.4999999 c 0,-2.207031 1.79297,-4 4,-4 h 24 c 2.20703,0 4,1.792969 4,4 V 51.613281 L 332.16016,63.1875 C 337.60938,65.925781 341,71.402344 341,77.5 v 120 c 0,2.20703 -1.79297,4 -4,4 z m -20,-8 h 16 v -116 c 0,-3.046875 -1.69531,-5.792969 -4.42578,-7.160156 L 303.20703,57.660156 C 301.85547,56.980469 301,55.597656 301,54.085938 V 9.4999999 H 285 V 61.5 c 0,3.046875 1.69531,5.792969 4.42578,7.160156 l 25.36719,12.679688 C 316.14453,82.019531 317,83.402344 317,84.914062 Z m 0,0"
     id="path34"
     inkscape:connector-curvature="0"
     style="fill:#212a41" />
  <path
     d="m 349,213.5 c 0,13.25391 -10.74609,24 -24,24 -13.25391,0 -24,-10.74609 -24,-24 0,-13.25391 10.74609,-24 24,-24 13.25391,0 24,10.74609 24,24 z m 0,0"
     id="path36"
     inkscape:connector-curvature="0"
     style="fill:#f9ac2f" />
  <path
     d="m 325,241.5 c -15.44141,0 -28,-12.55859 -28,-28 0,-15.44141 12.55859,-28 28,-28 15.44141,0 28,12.55859 28,28 0,15.44141 -12.55859,28 -28,28 z m 0,-48 c -11.03125,0 -20,8.97656 -20,20 0,11.02344 8.96875,20 20,20 11.03125,0 20,-8.97656 20,-20 0,-11.02344 -8.96875,-20 -20,-20 z m 0,0"
     id="path38"
     inkscape:connector-curvature="0"
     style="fill:#212a41" />
  <path
     d="m 369,153.5 h 52 v 24 h -52 z m 0,0"
     id="path40"
     inkscape:connector-curvature="0"
     style="fill:#e0e0e0" />
  <path
     d="m 421,181.5 h -52 c -2.20703,0 -4,-1.79297 -4,-4 v -24 c 0,-2.20703 1.79297,-4 4,-4 h 52 c 2.20703,0 4,1.79297 4,4 v 24 c 0,2.20703 -1.79297,4 -4,4 z m -48,-8 h 44 v -16 h -44 z m 0,0"
     id="path42"
     inkscape:connector-curvature="0"
     style="fill:#212a41" />
  <path
     d="m 209,5.4999999 h 24 V 41.5 h -24 z m 0,0"
     id="path44"
     inkscape:connector-curvature="0"
     style="fill:#e0e0e0" />
  <path
     d="m 233,45.5 h -24 c -2.20703,0 -4,-1.792969 -4,-4 V 5.4999999 c 0,-2.207031 1.79297,-4 4,-4 h 24 c 2.20703,0 4,1.792969 4,4 V 41.5 c 0,2.207031 -1.79297,4 -4,4 z m -20,-8 h 16 V 9.4999999 h -16 z m 0,0"
     id="path46"
     inkscape:connector-curvature="0"
     style="fill:#212a41" />
  <path
     d="m 217,373.5 h 24 v 48 h -24 z m 0,0"
     id="path48"
     inkscape:connector-curvature="0"
     style="fill:#e0e0e0" />
  <path
     d="m 241,425.5 h -24 c -2.20703,0 -4,-1.79297 -4,-4 v -48 c 0,-2.20703 1.79297,-4 4,-4 h 24 c 2.20703,0 4,1.79297 4,4 v 48 c 0,2.20703 -1.79297,4 -4,4 z m -20,-8 h 16 v -40 h -16 z m 0,0"
     id="path50"
     inkscape:connector-curvature="0"
     style="fill:#212a41" />
  <path
     d="m 265,373.5 h 24 v 48 h -24 z m 0,0"
     id="path52"
     inkscape:connector-curvature="0"
     style="fill:#e0e0e0" />
  <path
     d="m 289,425.5 h -24 c -2.20703,0 -4,-1.79297 -4,-4 v -48 c 0,-2.20703 1.79297,-4 4,-4 h 24 c 2.20703,0 4,1.79297 4,4 v 48 c 0,2.20703 -1.79297,4 -4,4 z m -20,-8 h 16 v -40 h -16 z m 0,0"
     id="path54"
     inkscape:connector-curvature="0"
     style="fill:#212a41" />
  <path
     d="m 313,373.5 h 24 v 48 h -24 z m 0,0"
     id="path56"
     inkscape:connector-curvature="0"
     style="fill:#e0e0e0" />
  <path
     d="m 337,425.5 h -24 c -2.20703,0 -4,-1.79297 -4,-4 v -48 c 0,-2.20703 1.79297,-4 4,-4 h 24 c 2.20703,0 4,1.79297 4,4 v 48 c 0,2.20703 -1.79297,4 -4,4 z m -20,-8 h 16 v -40 h -16 z m 0,0"
     id="path58"
     inkscape:connector-curvature="0"
     style="fill:#212a41" />
  <path
     d="m 165,301.5 h -36 v -72 h -24 v 40 H 21 v 24 h 84 v 20 c 0,6.63281 5.375,12 12,12 h 36 v 96 h 24 v -108 c 0,-6.63281 -5.375,-12 -12,-12 z m 0,0"
     id="path60"
     inkscape:connector-curvature="0"
     style="fill:#e0e0e0" />
  <path
     d="m 177,425.5 h -24 c -2.20703,0 -4,-1.79297 -4,-4 v -92 h -32 c -8.82422,0 -16,-7.17578 -16,-16 v -16 H 21 c -2.207031,0 -4,-1.79297 -4,-4 v -24 c 0,-2.20703 1.792969,-4 4,-4 h 80 v -36 c 0,-2.20703 1.79297,-4 4,-4 h 24 c 2.20703,0 4,1.79297 4,4 v 68 h 32 c 8.82422,0 16,7.17578 16,16 v 108 c 0,2.20703 -1.79297,4 -4,4 z m 0,-4 h 0.0781 z m -20,-4 h 16 v -104 c 0,-4.40625 -3.58594,-8 -8,-8 h -36 c -2.20703,0 -4,-1.79297 -4,-4 v -68 h -16 v 36 c 0,2.20703 -1.79297,4 -4,4 H 25 v 16 h 80 c 2.20703,0 4,1.79297 4,4 v 20 c 0,4.40625 3.58594,8 8,8 h 36 c 2.20703,0 4,1.79297 4,4 z m 0,0"
     id="path62"
     inkscape:connector-curvature="0"
     style="fill:#212a41" />
  <path
     d="m 141,213.5 c 0,13.25391 -10.74609,24 -24,24 -13.25391,0 -24,-10.74609 -24,-24 0,-13.25391 10.74609,-24 24,-24 13.25391,0 24,10.74609 24,24 z m 0,0"
     id="path64"
     inkscape:connector-curvature="0"
     style="fill:#f9ac2f" />
  <path
     d="m 117,241.5 c -15.44141,0 -28,-12.55859 -28,-28 0,-15.44141 12.55859,-28 28,-28 15.44141,0 28,12.55859 28,28 0,15.44141 -12.55859,28 -28,28 z m 0,-48 c -11.03125,0 -20,8.97656 -20,20 0,11.02344 8.96875,20 20,20 11.03125,0 20,-8.97656 20,-20 0,-11.02344 -8.96875,-20 -20,-20 z m 0,0"
     id="path66"
     inkscape:connector-curvature="0"
     style="fill:#212a41" />
  <path
     d="m 153,73.5 v -16 c 0,-4.414062 -3.58594,-8 -8,-8 H 57 l -24,24 h 96 v 36 c 0,6.625 5.375,12 12,12 h 64 v -24 h -52 z m 0,0"
     id="path68"
     inkscape:connector-curvature="0"
     style="fill:#e0e0e0" />
  <path
     d="m 205,125.5 h -64 c -8.82422,0 -16,-7.17578 -16,-16 v -32 H 33 c -1.617188,0 -3.078125,-0.976562 -3.695312,-2.472656 C 28.6875,73.53125 29.03125,71.8125 30.167969,70.667969 l 24,-24 C 54.921875,45.925781 55.9375,45.5 57,45.5 h 88 c 6.61719,0 12,5.382812 12,12 v 36 h 48 c 2.20703,0 4,1.792969 4,4 v 24 c 0,2.20703 -1.79297,4 -4,4 z M 42.65625,69.5 H 129 c 2.20703,0 4,1.792969 4,4 v 36 c 0,4.40625 3.58594,8 8,8 h 60 v -16 h -48 c -2.20703,0 -4,-1.792969 -4,-4 v -40 c 0,-2.207031 -1.80078,-4 -4,-4 H 58.65625 Z m 0,0"
     id="path70"
     inkscape:connector-curvature="0"
     style="fill:#212a41" />
  <path
     d="m 245,109.5 c 0,13.25391 -10.74609,24 -24,24 -13.25391,0 -24,-10.74609 -24,-24 0,-13.253906 10.74609,-24 24,-24 13.25391,0 24,10.746094 24,24 z m 0,0"
     id="path72"
     inkscape:connector-curvature="0"
     style="fill:#f9ac2f" />
  <path
     d="m 221,137.5 c -15.44141,0 -28,-12.55859 -28,-28 0,-15.441406 12.55859,-28 28,-28 15.44141,0 28,12.558594 28,28 0,15.44141 -12.55859,28 -28,28 z m 0,-48 c -11.03125,0 -20,8.976562 -20,20 0,11.02344 8.96875,20 20,20 11.03125,0 20,-8.97656 20,-20 0,-11.023438 -8.96875,-20 -20,-20 z m 0,0"
     id="path74"
     inkscape:connector-curvature="0"
     style="fill:#212a41" />
</svg>
